<svg width="32" height="32" viewBox="0 0 32 32" fill="none" xmlns="http://www.w3.org/2000/svg">
<path d="M24.0002 8.00008H21.3335C21.3335 5.05341 18.9468 2.66675 16.0002 2.66675C13.0535 2.66675 10.6668 5.05341 10.6668 8.00008H8.00016C6.5335 8.00008 5.3335 9.20008 5.3335 10.6667V26.6667C5.3335 28.1334 6.5335 29.3334 8.00016 29.3334H24.0002C25.4668 29.3334 26.6668 28.1334 26.6668 26.6667V10.6667C26.6668 9.20008 25.4668 8.00008 24.0002 8.00008ZM16.0002 5.33341C17.4668 5.33341 18.6668 6.53341 18.6668 8.00008H13.3335C13.3335 6.53341 14.5335 5.33341 16.0002 5.33341ZM24.0002 26.6667H8.00016V10.6667H10.6668V13.3334C10.6668 14.0667 11.2668 14.6667 12.0002 14.6667C12.7335 14.6667 13.3335 14.0667 13.3335 13.3334V10.6667H18.6668V13.3334C18.6668 14.0667 19.2668 14.6667 20.0002 14.6667C20.7335 14.6667 21.3335 14.0667 21.3335 13.3334V10.6667H24.0002V26.6667Z" fill="#002F52"/>
</svg>
